<svg width="79" height="69" viewBox="0 0 79 69" fill="none" xmlns="http://www.w3.org/2000/svg">
<path d="M22.8343 42.7197H28.3241V37.0759H22.8343V42.7197ZM25.5792 8.85697C22.6672 8.85697 19.8745 10.0462 17.8154 12.163C15.7563 14.2799 14.5995 17.1509 14.5995 20.1445H20.0894C20.0894 18.6477 20.6677 17.2122 21.6973 16.1538C22.7268 15.0954 24.1232 14.5008 25.5792 14.5008C27.0352 14.5008 28.4315 15.0954 29.4611 16.1538C30.4906 17.2122 31.069 18.6477 31.069 20.1445C31.069 25.7883 22.8343 25.0828 22.8343 34.254H28.3241C28.3241 27.9047 36.5588 27.1993 36.5588 20.1445C36.5588 17.1509 35.402 14.2799 33.3429 12.163C31.2839 10.0462 28.4911 8.85697 25.5792 8.85697ZM6.36482 0.391296H44.7935C46.2495 0.391296 47.6459 0.985907 48.6754 2.04432C49.7049 3.10274 50.2833 4.53826 50.2833 6.03508V45.5416C50.2833 47.0384 49.7049 48.4739 48.6754 49.5323C47.6459 50.5907 46.2495 51.1853 44.7935 51.1853H6.36482C4.90883 51.1853 3.51247 50.5907 2.48293 49.5323C1.45339 48.4739 0.875 47.0384 0.875 45.5416V6.03508C0.875 4.53826 1.45339 3.10274 2.48293 2.04432C3.51247 0.985907 4.90883 0.391296 6.36482 0.391296Z" fill="#F31D1D"/>
<path d="M53.3084 61.0332H58.3501V55.8501H53.3084V61.0332ZM55.8292 29.9348C50.2834 29.9348 45.7459 34.5995 45.7459 40.3009H50.7876C50.7876 37.4502 53.0563 35.1179 55.8292 35.1179C58.6021 35.1179 60.8709 37.4502 60.8709 40.3009C60.8709 45.484 53.3084 44.9657 53.3084 53.2586H58.3501C58.3501 47.5572 65.9126 46.7798 65.9126 40.3009C65.9126 34.5995 61.3751 29.9348 55.8292 29.9348ZM73.4751 27.3433V63.6247H38.1834V27.3433H73.4751ZM73.4751 22.1602H38.1834C35.4105 22.1602 33.1417 24.4926 33.1417 27.3433V63.6247C33.1417 66.4754 35.4105 68.8078 38.1834 68.8078H73.4751C76.248 68.8078 78.5167 66.4754 78.5167 63.6247V27.3433C78.5167 24.4926 76.248 22.1602 73.4751 22.1602Z" fill="#F31D1D"/>
</svg>
