<svg width="68" height="57" viewBox="0 0 68 57" fill="none" xmlns="http://www.w3.org/2000/svg">
<path d="M63.816 36.7131V31.8C63.816 27.2145 59.3556 23.6117 54.8952 23.6117C50.4348 23.6117 45.9744 27.2145 45.9744 31.8V36.7131C44.0628 36.7131 42.1512 38.6783 42.1512 40.6435V52.1072C42.1512 54.3999 44.0628 56.3651 45.9744 56.3651H63.4974C65.7276 56.3651 67.6392 54.3999 67.6392 52.4347V40.971C67.6392 38.6783 65.7276 36.7131 63.816 36.7131ZM59.6742 36.7131H50.1162V31.8C50.1162 29.1797 52.3464 27.5421 54.8952 27.5421C57.444 27.5421 59.6742 29.1797 59.6742 31.8V36.7131ZM35.8748 53.0898H7.10526C5.41531 53.0898 3.79457 52.3996 2.59959 51.1711C1.40461 49.9426 0.733276 48.2765 0.733276 46.5391V7.2349C0.733276 5.49755 1.40461 3.83135 2.59959 2.60286C3.79457 1.37436 5.41531 0.684204 7.10526 0.684204H58.0812C61.6176 0.684204 64.4532 3.59927 64.4532 7.2349V20.4673C62.6053 19.0262 60.4707 17.9125 58.0812 17.4212V13.7856H7.10526V23.6117H42.2786C40.5582 25.9699 39.6024 28.7867 39.6024 31.8V32.5861C37.3722 34.5513 35.7792 37.4991 35.7792 40.6435V52.1072C35.7792 52.4347 35.7792 52.7623 35.8748 53.0898Z" fill="#F31D1D"/>
</svg>
